<svg width="170" height="170" viewBox="0 0 170 170" fill="none" xmlns="http://www.w3.org/2000/svg">
<rect width="170" height="170" rx="35.8889" fill="url(#paint0_linear_3426_36862)"/>
<path d="M69.8076 33.3159C71.1231 33.4434 72.156 34.5048 72.1562 35.8022C72.1561 36.5558 71.8049 37.228 71.2549 37.6851V40.7817H79.8789C81.2584 40.7817 82.0917 42.3079 81.3457 43.4683L76.5342 50.9517V63.1763H76.5059V81.5522H109.898C118.125 81.5524 124.794 88.2221 124.794 96.4487V116.007H124.773V127.512C124.773 128.886 123.659 130 122.285 130H102.938C101.565 130 100.45 128.886 100.45 127.512V116.007H76.5059V127.511C76.5057 128.885 75.3915 129.998 74.0176 129.999H54.6709C53.2969 129.999 52.1828 128.885 52.1826 127.511V63.1763H47.5264V63.1372C41.8518 62.8818 37.2945 58.2746 37.0137 52.521L37 51.9575C37.0005 45.7757 41.9336 40.7612 48.0225 40.7612C48.2433 40.7612 48.4624 40.7698 48.6787 40.7827H52.1826V40.7817H60.168V37.7554C59.5663 37.2989 59.1759 36.5963 59.1758 35.8022C59.176 34.4183 60.3512 33.3032 61.791 33.3032C63.2307 33.3033 64.406 34.4184 64.4062 35.8022C64.4061 36.5566 64.0541 37.2299 63.5029 37.687V40.7817H67.9189V37.7554C67.317 37.2989 66.9259 36.5966 66.9258 35.8022C66.926 34.4184 68.1013 33.3033 69.541 33.3032L69.8076 33.3159Z" fill="white"/>
<defs>
<linearGradient id="paint0_linear_3426_36862" x1="85" y1="0" x2="85" y2="170" gradientUnits="userSpaceOnUse">
<stop stop-color="#FFCC00"/>
<stop offset="0.5" stop-color="#FFBF00"/>
<stop offset="1" stop-color="#FFAE00"/>
</linearGradient>
</defs>
</svg>
