<svg width="24" height="24" viewBox="0 0 24 24" fill="none" xmlns="http://www.w3.org/2000/svg">
<path d="M20.2451 7.58244C20.2424 7.53673 20.2387 7.51625 20.2373 7.51017C20.2262 7.47641 20.2077 7.44551 20.1836 7.41935C20.1792 7.4154 20.1639 7.40216 20.125 7.37736C20.0599 7.33588 19.9699 7.28609 19.8125 7.19865L12.4131 3.08732C12.264 3.00448 12.179 2.95787 12.1133 2.92619C12.0744 2.90745 12.0565 2.90059 12.0508 2.89884C12.0176 2.89201 11.9824 2.89201 11.9492 2.89884C11.9435 2.90059 11.9256 2.90745 11.8867 2.92619C11.821 2.95787 11.736 3.00448 11.5869 3.08732L4.1875 7.19865C4.0301 7.28609 3.9401 7.33588 3.875 7.37736C3.83609 7.40216 3.82083 7.4154 3.81641 7.41935C3.79232 7.44551 3.77385 7.47641 3.7627 7.51017C3.76135 7.51625 3.75764 7.53673 3.75488 7.58244C3.75027 7.65943 3.75 7.76211 3.75 7.94181V16.059C3.75 16.2388 3.75025 16.3414 3.75488 16.4184C3.75761 16.4634 3.76133 16.4834 3.7627 16.4897C3.77386 16.5235 3.79229 16.5553 3.81641 16.5815C3.82133 16.5858 3.83725 16.5984 3.875 16.6225C3.9401 16.6639 4.0301 16.7137 4.1875 16.8012L11.5869 20.9125C11.736 20.9953 11.821 21.042 11.8867 21.0736C11.9255 21.0924 11.9435 21.0992 11.9492 21.101C11.9824 21.1078 12.0176 21.1078 12.0508 21.101C12.0565 21.0992 12.0745 21.0924 12.1133 21.0736C12.179 21.042 12.264 20.9953 12.4131 20.9125L19.8125 16.8012C19.9699 16.7137 20.0599 16.6639 20.125 16.6225C20.1628 16.5984 20.1787 16.5858 20.1836 16.5815C20.2077 16.5553 20.2261 16.5235 20.2373 16.4897C20.2387 16.4834 20.2424 16.4634 20.2451 16.4184C20.2498 16.3414 20.25 16.2388 20.25 16.059V7.94181C20.25 7.76211 20.2497 7.65943 20.2451 7.58244ZM12.0098 15.2504C12.424 15.2504 12.7598 15.5862 12.7598 16.0004C12.7595 16.4144 12.4238 16.7504 12.0098 16.7504H12C11.5859 16.7504 11.2502 16.4144 11.25 16.0004C11.25 15.5862 11.5858 15.2504 12 15.2504H12.0098ZM11.25 12.0004V8.0004C11.25 7.58619 11.5858 7.2504 12 7.2504C12.4142 7.2504 12.75 7.58619 12.75 8.0004V12.0004C12.7498 12.4144 12.4141 12.7504 12 12.7504C11.5859 12.7504 11.2502 12.4144 11.25 12.0004ZM21.75 16.059C21.75 16.3498 21.7593 16.666 21.6621 16.9604C21.584 17.1968 21.4558 17.414 21.2871 17.5971C21.0768 17.8253 20.7954 17.9714 20.541 18.1127L13.1416 22.224C12.9005 22.358 12.642 22.5102 12.3525 22.5697C12.1199 22.6176 11.8801 22.6176 11.6475 22.5697C11.358 22.5102 11.0995 22.358 10.8584 22.224L3.45899 18.1127C3.20458 17.9714 2.92318 17.8253 2.71289 17.5971C2.54422 17.4139 2.416 17.1968 2.33789 16.9604C2.24072 16.666 2.24999 16.3498 2.25 16.059V7.94181C2.25 7.65085 2.24061 7.33405 2.33789 7.03947C2.41602 6.80302 2.54418 6.5859 2.71289 6.40275C2.92318 6.17456 3.20458 6.02846 3.45899 5.88712L10.8584 1.77579C11.0995 1.64184 11.358 1.48963 11.6475 1.43009C11.8801 1.38225 12.1199 1.38225 12.3525 1.43009C12.642 1.48963 12.9005 1.64183 13.1416 1.77579L20.541 5.88712C20.7954 6.02846 21.0768 6.17456 21.2871 6.40275C21.4558 6.5859 21.584 6.80301 21.6621 7.03947C21.7594 7.33405 21.75 7.65086 21.75 7.94181V16.059Z" fill="#17140D" fill-opacity="0.59"/>
</svg>
