<svg width="24" height="24" viewBox="0 0 24 24" fill="none" xmlns="http://www.w3.org/2000/svg">
<path d="M9.25 15.2496H6.5C5.99072 15.2496 5.49885 15.1759 5.0332 15.0406L6.30273 20.1168C6.35031 20.3071 6.36396 20.3597 6.37793 20.401C6.53788 20.8731 6.9631 21.2051 7.45996 21.2457C7.50332 21.2492 7.558 21.2496 7.75391 21.2496C8.00003 21.2496 8.07001 21.2487 8.12109 21.2437C8.71582 21.1858 9.18644 20.7155 9.24414 20.1207C9.2491 20.0696 9.25 19.9997 9.25 19.7535V15.2496ZM21.25 9.9996C21.2498 8.74124 20.4038 7.68269 19.25 7.35605V12.6432C20.4038 12.3164 21.25 11.2581 21.25 9.9996ZM2.75 9.9996C2.75 12.0707 4.42893 13.7496 6.5 13.7496H9.25V6.2496H6.5C4.42907 6.2496 2.75022 7.92872 2.75 9.9996ZM17.75 5.12655C17.75 4.59125 17.7499 4.23495 17.7295 3.97812C17.7163 3.81275 17.6972 3.74098 17.6914 3.7203C17.6503 3.66665 17.6171 3.64692 17.5508 3.63632C17.5274 3.64214 17.4498 3.66352 17.2871 3.73691C17.0362 3.85013 16.7005 4.0322 16.2031 4.30331C14.6703 5.1389 12.6032 6.07521 10.75 6.22616V13.773C12.6033 13.924 14.6702 14.8613 16.2031 15.6969C16.7005 15.968 17.0362 16.1501 17.2871 16.2633C17.4493 16.3364 17.5272 16.357 17.5508 16.3629C17.617 16.3523 17.6493 16.3325 17.6904 16.2789C17.6964 16.2576 17.7164 16.186 17.7295 16.0221C17.7499 15.7652 17.75 15.4089 17.75 14.8736V5.12655ZM19.25 5.81698C21.2393 6.17127 22.7498 7.90854 22.75 9.9996C22.75 12.0908 21.2394 13.8279 19.25 14.1822V14.8736C19.25 15.3824 19.2508 15.8097 19.2246 16.1402C19.2 16.4504 19.1442 16.8279 18.9229 17.1373C18.6276 17.55 18.2165 17.7943 17.7129 17.856C17.3295 17.903 16.96 17.7613 16.6699 17.6305C16.355 17.4884 15.9605 17.2733 15.4854 17.0142C13.9964 16.2026 12.2245 15.4309 10.75 15.2789V19.7535C10.75 19.9645 10.751 20.1238 10.7373 20.2652C10.6104 21.5741 9.57443 22.6099 8.26562 22.7369C8.12412 22.7506 7.96493 22.7496 7.75391 22.7496C7.58505 22.7496 7.45627 22.7506 7.33691 22.7408C6.24406 22.6512 5.30889 21.921 4.95703 20.8824C4.91861 20.769 4.88763 20.6439 4.84668 20.4801L3.27246 14.1822C3.26826 14.1654 3.26473 14.1482 3.26172 14.1314C2.03722 13.1703 1.25 11.677 1.25 9.9996C1.25022 7.10029 3.60064 4.7496 6.5 4.7496H10.25C11.8099 4.7496 13.8237 3.89175 15.4854 2.98593C15.9605 2.72689 16.355 2.51085 16.6699 2.36874C16.9235 2.25433 17.2381 2.13191 17.5693 2.13437L17.7129 2.14413L17.8975 2.17538C18.3177 2.26915 18.6645 2.50175 18.9229 2.86288C19.1441 3.17211 19.1999 3.54884 19.2246 3.85898C19.2509 4.18953 19.25 4.61757 19.25 5.12655V5.81698Z" fill="#17140D" fill-opacity="0.59"/>
</svg>
