<svg width="24" height="24" viewBox="0 0 24 24" fill="none" xmlns="http://www.w3.org/2000/svg">
<path d="M10.3711 8.61568C10.6044 8.4555 10.9015 8.42039 11.1656 8.52193C13.8826 9.56693 16.4892 10.0816 18.0912 10.0816C18.5657 10.0816 18.9501 10.4673 18.9502 10.9418C18.95 11.4162 18.5657 11.8008 18.0912 11.8008C16.5119 11.8008 13.8995 11.2977 11.7164 10.5504V14.6075L17.536 15.5055C17.9591 15.5661 18.2729 15.9289 18.2732 16.3563V21.7227C18.2731 22.1972 17.8887 22.5816 17.4142 22.5816C16.9396 22.5816 16.5553 22.1972 16.5552 21.7227V17.1016L10.7355 16.2047C10.3124 16.1441 9.99844 15.7815 9.99844 15.354V9.3235C9.99852 9.04053 10.1379 8.77593 10.3711 8.61568ZM6.85898 10.9691C7.33349 10.9691 7.71781 11.3536 7.71797 11.8281V16.9666C7.71797 16.9666 7.71797 17.3071 7.83882 17.438C8.01638 17.6303 8.30504 17.689 8.30504 17.689L13.909 18.7375C14.3752 18.8249 14.6827 19.2732 14.5957 19.7394C14.5082 20.2059 14.059 20.5136 13.5926 20.4261L7.22812 19.2332C6.51612 19.0996 6.00001 18.4775 6 17.7531V11.8281C6.00016 11.3536 6.38448 10.9691 6.85898 10.9691ZM10.8563 2C12.2823 2 13.4388 3.15568 13.4391 4.58164C13.4391 6.00782 12.2824 7.16446 10.8563 7.16446C9.43022 7.16428 8.27461 6.00771 8.27461 4.58164C8.27487 3.15579 9.43038 2.00018 10.8563 2ZM10.8563 3.71797C10.3796 3.71815 9.99284 4.10499 9.99258 4.58164C9.99258 5.05851 10.3794 5.44513 10.8563 5.44531C11.3332 5.44531 11.7199 5.05862 11.7199 4.58164C11.7197 4.10488 11.3331 3.71797 10.8563 3.71797Z" fill="#17140D" fill-opacity="0.59"/>
</svg>
