<svg width="24" height="24" viewBox="0 0 24 24" fill="none" xmlns="http://www.w3.org/2000/svg">
<path d="M16.4697 6.46972C16.7626 6.17683 17.2374 6.17683 17.5303 6.46972C17.8232 6.76262 17.8232 7.23738 17.5303 7.53027L13.0606 12L17.5303 16.4697C17.8232 16.7626 17.8232 17.2374 17.5303 17.5303C17.2374 17.8232 16.7626 17.8232 16.4697 17.5303L12 13.0605L7.53028 17.5303C7.23738 17.8232 6.76262 17.8232 6.46973 17.5303C6.17684 17.2374 6.17684 16.7626 6.46973 16.4697L10.9395 12L6.46973 7.53027C6.17684 7.23738 6.17684 6.76262 6.46973 6.46972C6.76262 6.17683 7.23738 6.17683 7.53028 6.46972L12 10.9394L16.4697 6.46972Z" fill="#17140D" fill-opacity="0.59"/>
</svg>
