<svg width="24" height="24" viewBox="0 0 24 24" fill="none" xmlns="http://www.w3.org/2000/svg">
<path d="M12 2C17.523 2 22 6.47701 22 12C22 17.523 17.523 22 12 22C6.47701 22 2 17.523 2 12C2 6.47701 6.47701 2 12 2ZM4.28016 15.8018C5.47078 18.2149 7.7586 19.987 10.4929 20.4702C10.2174 20.0631 9.90645 19.5685 9.59811 18.994C9.12366 18.1099 8.64642 17.0327 8.2927 15.8018H4.28016ZM15.7073 15.8018C15.3536 17.0327 14.8763 18.1099 14.4019 18.994C14.0934 19.5687 13.7818 20.063 13.5062 20.4702C16.2409 19.9873 18.5291 18.2152 19.7198 15.8018H15.7073ZM9.75073 15.8018C10.0564 16.7606 10.441 17.6131 10.8281 18.3345C11.2553 19.1305 11.6817 19.7605 12 20.1895C12.3183 19.7605 12.7447 19.1305 13.1719 18.3345C13.559 17.6131 13.9436 16.7606 14.2493 15.8018H9.75073ZM16.0334 9.34466C16.1827 10.1364 16.2714 10.9822 16.2714 11.8755C16.2714 12.7632 16.1836 13.6096 16.0362 14.4064H20.2613C20.4834 13.6426 20.6047 12.8355 20.6047 12C20.6047 11.0731 20.4561 10.1812 20.185 9.34466H16.0334ZM3.81504 9.34466C3.54388 10.1812 3.39535 11.0731 3.39535 12C3.39535 12.8355 3.51663 13.6426 3.73874 14.4064H7.96384C7.81639 13.6096 7.72856 12.7632 7.72856 11.8755C7.72857 10.9822 7.8173 10.1364 7.96657 9.34466H3.81504ZM9.39099 9.34466C9.22556 10.1311 9.12392 10.9773 9.12391 11.8755C9.12391 12.7662 9.22341 13.6132 9.38645 14.4064H14.6136C14.7766 13.6132 14.8761 12.7662 14.8761 11.8755C14.8761 10.9773 14.7744 10.1311 14.609 9.34466H9.39099ZM13.5589 3.53797C13.8199 3.91086 14.1093 4.35657 14.3964 4.87155C14.8686 5.71845 15.342 6.75455 15.6955 7.94931H19.5927C18.3786 5.67824 16.1758 4.01692 13.5589 3.53797ZM10.4402 3.53797C7.82372 4.01713 5.62131 5.6785 4.40734 7.94931H8.30451C8.65805 6.75455 9.13142 5.71845 9.60356 4.87155C9.89055 4.35677 10.1793 3.91078 10.4402 3.53797ZM11.9909 3.78325C11.6742 4.18785 11.2489 4.7865 10.8227 5.55105C10.4444 6.22964 10.0683 7.03519 9.76617 7.94931H14.2338C13.9317 7.03519 13.5556 6.22964 13.1773 5.55105C12.7511 4.7865 12.3258 4.18785 12.0091 3.78325C12.006 3.77932 12.0031 3.77533 12 3.77144C11.9969 3.77533 11.994 3.77932 11.9909 3.78325Z" fill="#17140D" fill-opacity="0.59"/>
</svg>
