<svg width="58" height="37" viewBox="0 0 58 37" fill="none" xmlns="http://www.w3.org/2000/svg">
<path d="M0 4C0 1.79086 1.79086 0 4 0H54C56.2091 0 58 1.79086 58 4V33C58 35.2091 56.2091 37 54 37H4C1.79086 37 0 35.2091 0 33V4Z" fill="white"/>
<path opacity="0.75" d="M35 4C35 2.89543 35.8954 2 37 2H54C55.1046 2 56 2.89543 56 4V33C56 34.1046 55.1046 35 54 35H37C35.8954 35 35 34.1046 35 33V4Z" fill="#F4F4F4"/>
<rect x="40" y="4" width="14" height="2" rx="1" fill="#24221F" fill-opacity="0.07"/>
<rect x="40" y="8" width="14" height="2" rx="1" fill="#24221F" fill-opacity="0.07"/>
<rect x="40" y="12" width="14" height="2" rx="1" fill="#24221F" fill-opacity="0.07"/>
<circle cx="38" cy="5" r="1" fill="#E42939"/>
<circle cx="38" cy="9" r="1" fill="#FFC61A"/>
<circle cx="38" cy="13" r="1" fill="#02A262"/>
</svg>
