<svg width="58" height="37" viewBox="0 0 58 37" fill="none" xmlns="http://www.w3.org/2000/svg">
<path d="M0 4C0 1.79086 1.79086 0 4 0H54C56.2091 0 58 1.79086 58 4V33C58 35.2091 56.2091 37 54 37H4C1.79086 37 0 35.2091 0 33V4Z" fill="white"/>
<path opacity="0.75" d="M2 13C2 11.8954 2.89543 11 4 11H36C37.1046 11 38 11.8954 38 13V33C38 34.1046 37.1046 35 36 35H4C2.89543 35 2 34.1046 2 33V13Z" fill="#F4F4F4"/>
<path opacity="0.75" d="M40 4C40 2.89543 40.8954 2 42 2H54C55.1046 2 56 2.89543 56 4V33C56 34.1046 55.1046 35 54 35H42C40.8954 35 40 34.1046 40 33V4Z" fill="#F4F4F4"/>
<rect x="42" y="4" width="12" height="2" rx="1" fill="#FFC61A"/>
<path opacity="0.75" d="M2 4C2 2.89543 2.89543 2 4 2H36C37.1046 2 38 2.89543 38 4C38 5.10457 37.1046 6 36 6H4C2.89543 6 2 5.10457 2 4Z" fill="#F4F4F4"/>
</svg>
