<svg width="24" height="24" viewBox="0 0 24 24" fill="none" xmlns="http://www.w3.org/2000/svg">
<path d="M21.25 7.7998C21.25 6.94745 21.2497 6.35322 21.2119 5.89062C21.1748 5.4368 21.1055 5.17602 21.0049 4.97852C20.7892 4.55515 20.4449 4.21083 20.0215 3.99512C19.824 3.89449 19.5632 3.82517 19.1094 3.78809C18.6468 3.75029 18.0525 3.75 17.2002 3.75H6.79981C5.94746 3.75 5.35322 3.75029 4.89063 3.78809C4.4368 3.82517 4.17602 3.89449 3.97852 3.99512C3.55515 4.21083 3.21083 4.55515 2.99512 4.97852C2.89449 5.17602 2.82517 5.4368 2.78809 5.89062C2.75029 6.35322 2.75 6.94745 2.75 7.7998V12.2002C2.75 13.0525 2.75029 13.6468 2.78809 14.1094C2.82517 14.5632 2.89449 14.824 2.99512 15.0215C3.21083 15.4448 3.55515 15.7892 3.97852 16.0049C4.17602 16.1055 4.4368 16.1748 4.89063 16.2119C5.35322 16.2497 5.94746 16.25 6.79981 16.25H17.2002C18.0525 16.25 18.6468 16.2497 19.1094 16.2119C19.5632 16.1748 19.824 16.1055 20.0215 16.0049C20.4449 15.7892 20.7892 15.4448 21.0049 15.0215C21.1055 14.824 21.1748 14.5632 21.2119 14.1094C21.2497 13.6468 21.25 13.0525 21.25 12.2002V7.7998ZM22.75 12.2002C22.75 13.0278 22.751 13.6936 22.707 14.2314C22.6624 14.7781 22.5671 15.2579 22.3408 15.7021C21.9813 16.4078 21.4078 16.9813 20.7022 17.3408C20.258 17.5671 19.7781 17.6624 19.2314 17.707C18.6936 17.751 18.0278 17.75 17.2002 17.75H12.75V20.25H16C16.4142 20.25 16.75 20.5858 16.75 21C16.75 21.4142 16.4142 21.75 16 21.75H8C7.58579 21.75 7.25 21.4142 7.25 21C7.25 20.5858 7.58579 20.25 8 20.25H11.25V17.75H6.79981C5.97222 17.75 5.30639 17.751 4.76856 17.707C4.22195 17.6624 3.74205 17.5671 3.29785 17.3408C2.59225 16.9813 2.01871 16.4078 1.65918 15.7021C1.43287 15.2579 1.33763 14.7781 1.29297 14.2314C1.24903 13.6936 1.25 13.0278 1.25 12.2002V7.7998C1.25 6.97222 1.24903 6.30638 1.29297 5.76855C1.33763 5.22194 1.43287 4.74205 1.65918 4.29785C2.01871 3.59224 2.59225 3.0187 3.29785 2.65918C3.74205 2.43286 4.22195 2.33763 4.76856 2.29297C5.30639 2.24903 5.97222 2.25 6.79981 2.25H17.2002C18.0278 2.25 18.6936 2.24903 19.2314 2.29297C19.7781 2.33763 20.258 2.43286 20.7022 2.65918C21.4078 3.0187 21.9813 3.59224 22.3408 4.29785C22.5671 4.74205 22.6624 5.22194 22.707 5.76855C22.751 6.30638 22.75 6.97222 22.75 7.7998V12.2002Z" fill="#17140D" fill-opacity="0.59"/>
</svg>
